<svg width="6" height="20" viewBox="0 0 6 20" fill="freeze" xmlns="http://www.w3.org/2000/svg">
<path d="M1.88074 3.61967C1.58381 3.32273 1.41699 2.92001 1.41699 2.50008C1.41699 2.08016 1.58381 1.67743 1.88074 1.3805C2.17767 1.08356 2.5804 0.916748 3.00033 0.916748C3.42025 0.916748 3.82298 1.08356 4.11991 1.3805C4.41684 1.67743 4.58366 2.08016 4.58366 2.50008C4.58366 2.92001 4.41684 3.32273 4.11991 3.61967C3.82298 3.9166 3.42025 4.08342 3.00033 4.08342C2.5804 4.08342 2.17767 3.9166 1.88074 3.61967Z" stroke="#00182E" stroke-linecap="round" stroke-linejoin="round"/>
<path d="M1.88074 11.1197C1.58381 10.8227 1.41699 10.42 1.41699 10.0001C1.41699 9.58016 1.58381 9.17743 1.88074 8.8805C2.17767 8.58356 2.5804 8.41675 3.00033 8.41675C3.42025 8.41675 3.82298 8.58356 4.11991 8.8805C4.41684 9.17743 4.58366 9.58016 4.58366 10.0001C4.58366 10.42 4.41684 10.8227 4.11991 11.1197C3.82298 11.4166 3.42025 11.5834 3.00033 11.5834C2.5804 11.5834 2.17767 11.4166 1.88074 11.1197Z" stroke="#00182E" stroke-linecap="round" stroke-linejoin="round"/>
<path d="M1.88074 18.6197C1.58381 18.3227 1.41699 17.92 1.41699 17.5001C1.41699 17.0802 1.58381 16.6774 1.88074 16.3805C2.17767 16.0836 2.5804 15.9167 3.00033 15.9167C3.42025 15.9167 3.82298 16.0836 4.11991 16.3805C4.41684 16.6774 4.58366 17.0802 4.58366 17.5001C4.58366 17.92 4.41684 18.3227 4.11991 18.6197C3.82298 18.9166 3.42025 19.0834 3.00033 19.0834C2.5804 19.0834 2.17767 18.9166 1.88074 18.6197Z" stroke="#00182E" stroke-linecap="round" stroke-linejoin="round"/>
</svg>