<svg width="16" height="17" viewBox="0 0 16 17" fill="none" xmlns="http://www.w3.org/2000/svg">
<g clip-path="url(#clip0_9507_18087)">
<path d="M8.00034 0.421875C7.81634 0.421875 7.66699 0.571219 7.66699 0.755219V16.0886C7.66699 16.2726 7.81634 16.4219 8.00034 16.4219C8.18434 16.4219 8.33368 16.2726 8.33368 16.0886V0.755219C8.33368 0.571219 8.18434 0.421875 8.00034 0.421875Z" fill="#00182E"/>
<path d="M8.00033 1.75513C5.61099 1.75513 3.66699 3.25047 3.66699 5.08847C3.66699 6.35713 4.57899 7.49848 6.04765 8.06713C6.08765 8.08248 6.12765 8.08979 6.1683 8.08979C6.30165 8.08979 6.4283 8.00913 6.47896 7.87644C6.5463 7.7051 6.46096 7.51244 6.28896 7.44579C5.08296 6.97844 4.33362 6.07513 4.33362 5.08844C4.33368 3.61778 5.97899 2.42178 8.00033 2.42178C10.0217 2.42178 11.667 3.61778 11.667 5.08844C11.667 5.27244 11.8163 5.42179 12.0003 5.42179C12.1843 5.42179 12.3337 5.27244 12.3337 5.08844C12.3337 3.25044 10.3897 1.75513 8.00033 1.75513Z" fill="#00182E"/>
<path d="M9.95233 8.77719C9.78099 8.70985 9.58833 8.79519 9.52168 8.96719C9.45433 9.13853 9.53968 9.33119 9.71168 9.39785C10.9177 9.86519 11.667 10.7685 11.667 11.7552C11.667 13.2258 10.0217 14.4218 8.00033 14.4218C5.97899 14.4218 4.33368 13.2258 4.33368 11.7552C4.33368 11.5712 4.18434 11.4218 4.00034 11.4218C3.81634 11.4218 3.66699 11.5712 3.66699 11.7552C3.66699 13.5932 5.61099 15.0885 8.00033 15.0885C10.3897 15.0885 12.3337 13.5932 12.3337 11.7552C12.3337 10.4865 11.4217 9.34519 9.95233 8.77719Z" fill="#00182E"/>
<path d="M9.95569 8.77913C8.98035 8.38579 8.51769 8.23313 8.02903 8.07179C7.59503 7.92844 7.14638 7.77978 6.28838 7.44644C6.11772 7.37778 5.92438 7.46444 5.85703 7.63578C5.78969 7.80713 5.87503 8.00044 6.04638 8.06713C6.92103 8.40713 7.37838 8.55779 7.82038 8.70379C8.29903 8.86179 8.75103 9.01113 9.70703 9.39644C9.74769 9.41244 9.78969 9.42044 9.83169 9.42044C9.96369 9.42044 10.0883 9.34179 10.1403 9.21244C10.2097 9.04244 10.127 8.84844 9.95569 8.77913Z" fill="#00182E"/>
</g>
<defs>
<clipPath id="clip0_9507_18087">
<rect width="16" height="16" fill="white" transform="translate(0 0.421875)"/>
</clipPath>
</defs>
</svg>