<svg width="20" height="20" viewBox="0 0 20 20" fill="none" xmlns="http://www.w3.org/2000/svg">
<path d="M10 19.1654C9.64833 19.1654 9.31416 19.0179 9.0825 18.7612C8.76666 18.5304 0 11.8079 0 6.2487C0 3.26203 2.43 0.832031 5.41666 0.832031C7.29916 0.832031 9.02166 1.80203 10 3.35787C10.9783 1.80203 12.7008 0.832031 14.5833 0.832031C17.57 0.832031 20 3.26203 20 6.2487C20 11.8079 11.2333 18.5304 10.86 18.8137C10.6858 19.0179 10.3517 19.1654 10 19.1654ZM5.41666 1.66537C2.88917 1.66537 0.833333 3.7212 0.833333 6.2487C0.833333 11.3987 9.55583 18.0837 9.64333 18.1504C9.90833 18.4212 10.1483 18.3687 10.2992 18.2029C10.4442 18.0837 19.1667 11.3962 19.1667 6.2487C19.1667 3.7212 17.1108 1.66537 14.5833 1.66537C12.7558 1.66537 11.1067 2.74453 10.3817 4.41453C10.25 4.7187 9.74916 4.7187 9.6175 4.41453C8.89333 2.74453 7.24416 1.66537 5.41666 1.66537Z" fill="#724964"/>
</svg>